<svg xmlns="http://www.w3.org/2000/svg" viewBox="0 0 390 844" width="390" height="844">
  <defs>
    <style>
      @import url('https://fonts.googleapis.com/css2?family=Manrope:wght@400;600&amp;family=Space+Grotesk:wght@700&amp;display=swap');
    </style>
    <!-- Colors from Pencil variables -->
    <linearGradient id="bg" x1="0" y1="0" x2="0" y2="1"><stop offset="0" stop-color="#0A0A0A"/></linearGradient>
  </defs>
  <!-- Background -->
  <rect width="390" height="844" fill="#0A0A0A"/>
  <!-- Status bar -->
  <rect x="0" y="0" width="390" height="54" fill="#0A0A0A"/>
  <text x="24" y="36" font-family="Inter, sans-serif" font-size="17" font-weight="600" fill="#FFFFFF">9:41</text>
  <g transform="translate(366, 27)">
    <rect x="-72" y="-9" width="18" height="18" fill="#FFFFFF" opacity="0.9"/>
    <rect x="-48" y="-9" width="18" height="18" fill="#FFFFFF" opacity="0.9"/>
    <rect x="-24" y="-9" width="24" height="18" fill="#FFFFFF" opacity="0.9"/>
  </g>
  <!-- Content area -->
  <g transform="translate(24, 78)">
    <!-- Header -->
    <rect x="131" y="32" width="64" height="64" rx="16" fill="#8B5CF6"/>
    <rect x="147" y="48" width="32" height="32" fill="#FFFFFF" opacity="0.9"/>
    <text x="195" y="168" text-anchor="middle" font-family="Space Grotesk, sans-serif" font-size="28" font-weight="700" fill="#FFFFFF">RSVT Settlement</text>
    <text x="195" y="198" text-anchor="middle" font-family="Manrope, sans-serif" font-size="15" fill="#A1A1AA">KAB@K5 ?5@52>4K 157 3@0=8F</text>
    <!-- Menu buttons -->
    <g transform="translate(0, 258)">
      <rect x="0" y="0" width="342" height="56" rx="16" fill="#8B5CF6"/>
      <rect x="20" y="17" width="22" height="22" fill="#0A0A0A"/>
      <text x="50" y="36" font-family="Manrope, sans-serif" font-size="16" font-weight="600" fill="#0A0A0A"> 0AAG8B0BL ?5@52>4</text>
    </g>
    <g transform="translate(0, 326)">
      <rect x="0" y="0" width="342" height="56" rx="16" fill="#18181B" stroke="#27272A" stroke-width="1"/>
      <rect x="20" y="17" width="22" height="22" fill="#8B5CF6"/>
      <text x="50" y="36" font-family="Manrope, sans-serif" font-size="16" font-weight="600" fill="#FFFFFF">C@A</text>
    </g>
    <g transform="translate(0, 394)">
      <rect x="0" y="0" width="342" height="56" rx="16" fill="#18181B" stroke="#27272A" stroke-width="1"/>
      <rect x="20" y="17" width="22" height="22" fill="#8B5CF6"/>
      <text x="50" y="36" font-family="Manrope, sans-serif" font-size="16" font-weight="600" fill="#FFFFFF">>8 >?5@0F88</text>
    </g>
    <g transform="translate(0, 462)">
      <rect x="0" y="0" width="342" height="56" rx="16" fill="#18181B" stroke="#27272A" stroke-width="1"/>
      <rect x="20" y="17" width="22" height="22" fill="#8B5CF6"/>
      <text x="50" y="36" font-family="Manrope, sans-serif" font-size="16" font-weight="600" fill="#FFFFFF">!B0BCA 70O2:8</text>
    </g>
    <g transform="translate(0, 530)">
      <rect x="0" y="0" width="342" height="56" rx="16" fill="#18181B" stroke="#27272A" stroke-width="1"/>
      <rect x="20" y="17" width="22" height="22" fill="#8B5CF6"/>
      <text x="50" y="36" font-family="Manrope, sans-serif" font-size="16" font-weight="600" fill="#FFFFFF">>445@6:0</text>
    </g>
    <g transform="translate(0, 598)">
      <rect x="0" y="0" width="342" height="56" rx="16" fill="#18181B" stroke="#27272A" stroke-width="1"/>
      <rect x="20" y="17" width="22" height="22" fill="#8B5CF6"/>
      <text x="50" y="36" font-family="Manrope, sans-serif" font-size="16" font-weight="600" fill="#FFFFFF">=D>@<0F8O</text>
    </g>
  </g>
</svg>
